<svg width="60" height="60" viewBox="0 0 60 60" fill="none" xmlns="http://www.w3.org/2000/svg">
<path d="M26.5 2.02073C28.6658 0.770297 31.3342 0.770297 33.5 2.02073L52.4808 12.9793C54.6466 14.2297 55.9808 16.5406 55.9808 19.0415V40.9585C55.9808 43.4594 54.6466 45.7703 52.4808 47.0207L33.5 57.9793C31.3342 59.2297 28.6658 59.2297 26.5 57.9793L7.51924 47.0207C5.35343 45.7703 4.01924 43.4594 4.01924 40.9585V19.0415C4.01924 16.5406 5.35343 14.2297 7.51924 12.9793L26.5 2.02073Z" fill="#211F1C"/>
<path d="M34.342 12.8574L34.7275 13.0188C34.8868 13.0964 35.0175 13.1703 35.1302 13.2509C35.6295 13.6081 35.8798 14.3079 35.6513 14.8777C35.63 14.9309 35.6047 14.9855 35.5753 15.0432C35.5035 15.1835 35.3983 15.3335 35.2894 15.4473C35.0269 15.7213 34.625 15.7515 34.2474 15.7149C33.4837 15.641 32.7792 15.3579 32.0462 15.0793C29.9589 14.3408 28.0168 15.3417 26.0972 16.1373L25.3226 16.4544C23.0858 17.372 20.8598 18.3158 18.6373 19.2675L18.2537 19.4315C18.0068 19.5372 17.7601 19.6432 17.5135 19.7496C16.928 20.0006 16.3417 20.2401 15.743 20.4581L15.4044 20.5838C15.1018 20.6942 14.7985 20.8025 14.4944 20.9089C14.0351 21.1034 14.0207 21.1095 13.9252 21.5357C13.9188 21.5641 13.915 21.5931 13.9138 21.6222C13.9052 21.8205 14.0158 22.0049 14.1953 22.0894C15.9185 22.9002 17.677 23.6197 19.4395 24.3417L21.8987 25.3508C22.9175 25.7692 23.9344 26.1924 24.9494 26.6204L26.0442 27.0788C26.2692 27.1735 26.494 27.2686 26.7186 27.3643C29.0878 28.3754 30.7954 28.7637 33.239 27.8041C33.8862 27.5417 34.5282 27.2677 35.1705 26.9935C35.4535 26.8742 35.7367 26.7551 36.02 26.6362C36.6267 26.381 37.233 26.1253 37.839 25.869C38.8667 25.4361 39.8957 25.0065 40.9262 24.5803L41.4556 24.3607L42.501 23.9272C43.3243 23.5858 44.1475 23.2441 44.9705 22.9019L45.4057 22.7215L45.8072 22.5542L46.1559 22.4093C46.3879 22.3081 46.6154 22.2005 46.8415 22.0886C47.012 22.0041 47.1184 21.8294 47.1184 21.6391C47.1184 21.4395 47.0012 21.2586 46.8192 21.1769L46.6112 21.0837L45.9505 20.7828C45.8403 20.7334 45.7301 20.6843 45.6165 20.6336L45.2936 20.4855L44.9972 20.3515C44.9937 20.3495 44.9902 20.3475 44.9867 20.3455C44.4317 20.0258 44.1068 19.3807 44.2472 18.7558C44.3427 18.331 44.6335 17.9117 45.0516 17.7904C45.2123 17.7438 45.3898 17.7374 45.6448 17.7456C46.4457 17.8727 47.1836 18.2175 47.927 18.5297L48.4413 18.7319C49.2245 19.0568 49.8523 19.398 50.3507 19.9446C50.8299 20.4702 51.0497 21.1973 50.9859 21.9057C50.9761 22.0147 50.9608 22.1227 50.9389 22.2308C50.836 22.739 50.5216 23.1783 50.128 23.5159C49.6336 23.94 49.1012 24.2294 48.431 24.5019L48.1068 24.6351C47.874 24.7308 47.6408 24.8258 47.4073 24.9202C46.8991 25.126 46.3921 25.3345 45.8848 25.543L45.0654 25.8795C43.2331 26.6313 41.4104 27.4063 39.5867 28.1788C37.9528 28.872 36.3156 29.5574 34.6751 30.2348L34.2361 30.4171C32.9747 30.9344 31.8693 31.2601 30.499 31.2703L30.1326 31.2863C27.8293 31.307 25.4531 29.9041 23.3723 29.0171C22.7347 28.7465 22.0971 28.4761 21.4595 28.2061L20.9686 27.9977C19.8339 27.5172 18.6974 27.0408 17.5592 26.5686L17.0892 26.3732C16.1905 25.9998 16.1905 25.9998 15.2914 25.6275C12.9783 24.6719 11.924 24.2364 11.3187 23.916C10.5446 23.5064 10.0332 22.6937 10.0026 21.8185C10.002 21.8014 10.0016 21.7843 10.0012 21.7672C9.98689 21.1458 10.1735 20.5205 10.5815 20.0517C11.1638 19.3825 11.9406 19.0144 12.8317 18.6538L13.231 18.4882C13.6665 18.3081 14.1025 18.1298 14.5385 17.9516C15.0011 17.7607 15.4636 17.5695 15.926 17.3781L16.891 16.9794C18.0376 16.5062 19.1813 16.0266 20.3235 15.5428L20.8055 15.3386C21.4242 15.0766 22.0428 14.8143 22.6613 14.5516C24.1556 13.9168 25.6519 13.2899 27.1647 12.6998L27.5249 12.5588C29.8344 11.6675 32.0996 11.8979 34.342 12.8574ZM14.4405 34.9422C14.7188 34.9874 14.9956 35.087 15.2034 35.2775C15.2136 35.2868 15.2233 35.2962 15.2329 35.3058C15.4408 35.5157 15.5413 35.8143 15.5667 36.1086C15.5673 36.1157 15.5679 36.1226 15.5684 36.1295C15.5991 36.5579 15.3445 36.9578 15.0117 37.2294C14.8206 37.3855 14.6216 37.5244 14.407 37.6482C14.1058 37.8219 13.8137 38.0745 13.9326 38.4013C13.9914 38.5629 14.1335 38.7507 14.2831 38.8356C14.6442 39.0406 15.0321 39.1807 15.4237 39.3315L15.857 39.5071C16.3314 39.6985 16.8073 39.8858 17.2835 40.0729C17.6136 40.2052 17.9436 40.3377 18.2737 40.4704C18.7886 40.6777 19.3038 40.8843 19.8193 41.0901C21.0382 41.5779 22.2523 42.0778 23.4614 42.5894L24.456 43.0073C24.9334 43.2078 25.4102 43.4093 25.8867 43.612C28.5105 44.7279 30.4682 45.4804 33.2234 44.3926C33.8721 44.1298 34.5162 43.8556 35.1605 43.582C35.4443 43.4627 35.7282 43.3436 36.0122 43.2247C36.6205 42.9695 37.2287 42.7138 37.8365 42.4575C38.8654 42.0252 39.8955 41.5956 40.9268 41.1689L41.9812 40.7313L42.5012 40.5157L43.0161 40.3021L43.5287 40.0897C44.0094 39.8901 44.49 39.6903 44.9705 39.4904L45.4057 39.31L45.8072 39.1427L46.1559 38.9978C46.3844 38.8982 46.6085 38.7923 46.8312 38.6821C47.0081 38.5947 47.1184 38.4135 47.1184 38.2162C47.1184 38.0215 47.0107 37.8427 46.8386 37.7518L46.8095 37.7365L46.4096 37.5208L46.011 37.3077C45.5984 37.0506 45.4662 36.5355 45.4703 36.0493C45.4705 36.0308 45.4709 36.013 45.4716 35.9958C45.4932 35.4764 45.9753 35.0774 46.4795 34.951C46.8837 34.8496 47.3275 34.9094 47.7206 35.0476C47.9748 35.1369 48.2237 35.2398 48.4759 35.3476L48.8421 35.5007C49.488 35.7859 49.9675 36.083 50.3613 36.526C50.8337 37.0575 51.0497 37.7857 50.986 38.4939C50.9762 38.603 50.9609 38.7111 50.9389 38.8193C50.836 39.3275 50.5216 39.7668 50.128 40.1044C49.6336 40.5285 49.1012 40.8179 48.431 41.0904L48.1068 41.2236C47.874 41.3193 47.6408 41.4143 47.4073 41.5088C46.8991 41.7145 46.3921 41.923 45.8848 42.1315L45.0654 42.468C43.2331 43.2198 41.4104 43.9948 39.5867 44.7673C37.9528 45.4605 36.3156 46.1459 34.6751 46.8233L34.2361 47.0056C32.9747 47.5229 31.8693 47.8486 30.499 47.8588L30.1326 47.8748C27.8293 47.8955 25.4531 46.4927 23.3723 45.6057C22.7347 45.335 22.0971 45.0647 21.4595 44.7946L20.9686 44.5863C19.8339 44.1057 18.6974 43.6293 17.5592 43.1571L17.0892 42.9617C16.1905 42.5883 16.1905 42.5883 15.2914 42.216C12.9783 41.2605 11.924 40.8249 11.3187 40.5045C10.5446 40.0949 10.0332 39.2823 10.0026 38.407C10.002 38.3899 10.0016 38.3729 10.0012 38.3558C9.98689 37.7343 10.1745 37.1098 10.5808 36.6395C11.1068 36.0308 11.7976 35.652 12.6021 35.2978L13.1698 35.0404C13.6644 34.8918 14.0118 34.8726 14.4405 34.9422Z" fill="#F6522A"/>
<path d="M14.4481 26.5941C14.7213 26.6384 14.9925 26.7352 15.1991 26.9193C15.2112 26.9301 15.2228 26.941 15.234 26.9522C15.4403 27.1581 15.5414 27.4522 15.5668 27.7425C15.5671 27.7465 15.5674 27.7505 15.5677 27.7544C15.6014 28.1815 15.3434 28.5797 15.0095 28.8479C14.8175 29.0022 14.6176 29.1393 14.402 29.2614C14.1036 29.4305 13.8138 29.6792 13.9327 30.0009C13.9914 30.1597 14.1328 30.3441 14.2805 30.4269C14.6424 30.6297 15.0312 30.768 15.4237 30.9169L15.857 31.0899C16.3314 31.2785 16.8073 31.463 17.2835 31.6473C17.6136 31.7776 17.9435 31.9081 18.2734 32.0389C18.7882 32.2431 19.3033 32.4466 19.8187 32.6493C21.0394 33.1305 22.2556 33.6229 23.467 34.1264C23.7992 34.2637 24.1315 34.4009 24.4639 34.5381C24.9425 34.736 25.4208 34.934 25.8987 35.1337C26.3425 35.3185 26.7869 35.502 27.2319 35.6842L27.6208 35.8485C29.7942 36.7324 31.4582 36.6138 33.6001 35.7585C34.1251 35.5435 34.6478 35.324 35.1705 35.1042C35.4535 34.9867 35.7367 34.8693 36.02 34.7522C36.6267 34.5008 37.233 34.2489 37.839 33.9964C38.8667 33.57 39.8957 33.1468 40.9262 32.7269L41.4556 32.5106L42.501 32.0835C43.3243 31.7472 44.1475 31.4105 44.9705 31.0734L45.4057 30.8957L45.8072 30.7309L46.1559 30.5882C46.3856 30.4895 46.6108 30.3846 46.8347 30.2755C47.0092 30.1905 47.1184 30.0124 47.1184 29.8182C47.1184 29.6266 47.0118 29.4509 46.8418 29.3624L46.8095 29.3456L46.4096 29.1332L46.011 28.9232C45.6 28.671 45.4648 28.1606 45.4704 27.6784C45.4706 27.6599 45.4711 27.642 45.4719 27.6248C45.4956 27.1158 45.9788 26.7272 46.473 26.6032C46.4824 26.6008 46.4919 26.5985 46.5015 26.5962C46.9032 26.502 47.3255 26.5602 47.7155 26.6949C47.9714 26.7833 48.222 26.8854 48.4759 26.9922L48.8421 27.1431C49.4789 27.4201 49.9541 27.7085 50.3447 28.1349C50.831 28.6657 51.0554 29.4048 50.9832 30.1211C50.9738 30.2138 50.9603 30.3059 50.9418 30.398C50.8395 30.9092 50.5192 31.349 50.1203 31.6848C49.6281 32.0991 49.0978 32.3826 48.431 32.6496L48.1068 32.7808C47.874 32.8751 47.6408 32.9688 47.4073 33.0618C46.8991 33.2645 46.3921 33.4699 45.8848 33.6752L45.0654 34.0068C43.2331 34.7474 41.4104 35.5109 39.5867 36.2719C37.9528 36.9548 36.3156 37.6299 34.6751 38.2973L34.2361 38.4769C32.9747 38.9865 31.8693 39.3073 30.499 39.3174L30.1326 39.3331C27.8293 39.3535 25.4531 37.9716 23.3723 37.0977C22.7347 36.8311 22.0971 36.5648 21.4595 36.2987L20.9686 36.0935C19.8339 35.6201 18.6974 35.1508 17.5592 34.6856L17.0892 34.4931C16.1905 34.1253 16.1905 34.1253 15.2914 33.7585C12.9945 32.8238 11.9388 32.3941 11.3314 32.0791C10.55 31.6739 10.0293 30.8676 10.002 29.9878C9.98254 29.3594 10.1771 28.7197 10.5944 28.2495C11.1187 27.6589 11.8045 27.2891 12.6021 26.9432L13.1698 26.6896C13.6673 26.5424 14.0159 26.5241 14.4481 26.5941Z" fill="#F6522A"/>
<path d="M40.2715 15.0086C40.7229 15.0395 41.1915 15.1685 41.5115 15.4885C41.8315 15.8085 41.9605 16.2771 41.9914 16.7285C42.0008 16.8656 42.0027 16.9986 41.9962 17.1292C41.9471 18.1124 41.1124 18.9471 40.1292 18.9962C39.9986 19.0027 39.8656 19.0008 39.7285 18.9914C39.2771 18.9605 38.8085 18.8315 38.4885 18.5115C38.1685 18.1915 38.0395 17.7229 38.0086 17.2715C37.9992 17.1344 37.9973 17.0014 38.0038 16.8708C38.0529 15.8876 38.8876 15.0529 39.8708 15.0038C40.0014 14.9973 40.1344 14.9992 40.2715 15.0086Z" fill="#F5522A"/>
</svg>
