<svg width="41" height="36" viewBox="0 0 41 36" fill="none" xmlns="http://www.w3.org/2000/svg">
<path d="M24.342 0.857362L24.7275 1.01878C24.8868 1.09639 25.0175 1.1703 25.1302 1.25088C25.6295 1.60813 25.8798 2.30788 25.6513 2.87775C25.63 2.93087 25.6047 2.98553 25.5753 3.04318C25.5035 3.18347 25.3983 3.33347 25.2894 3.44727C25.0269 3.7213 24.625 3.75151 24.2474 3.71495C23.4837 3.64101 22.7792 3.35787 22.0462 3.07927C19.9589 2.34076 18.0168 3.34165 16.0972 4.13726L15.3226 4.45436C13.0858 5.37199 10.8598 6.31578 8.63734 7.26755L8.25373 7.43152C8.00682 7.53722 7.76008 7.64324 7.51349 7.74957C6.92801 8.00064 6.34173 8.24005 5.743 8.4581L5.40442 8.58379C5.10182 8.69418 4.79848 8.80254 4.49442 8.90886C4.03513 9.10337 4.02072 9.10948 3.9252 9.5357C3.91883 9.56414 3.91502 9.5931 3.91376 9.62222C3.90522 9.82048 4.01579 10.0049 4.19535 10.0894C5.91851 10.9002 7.67702 11.6197 9.43954 12.3417L11.8987 13.3508C12.9175 13.7692 13.9344 14.1924 14.9494 14.6204L16.0442 15.0788C16.2692 15.1735 16.494 15.2686 16.7186 15.3643C19.0878 16.3754 20.7954 16.7637 23.239 15.8041C23.8862 15.5417 24.5282 15.2677 25.1705 14.9935C25.4535 14.8742 25.7367 14.7551 26.02 14.6362C26.6267 14.381 27.233 14.1253 27.839 13.869C28.8667 13.4361 29.8957 13.0065 30.9262 12.5803L31.4556 12.3607L32.501 11.9272C33.3243 11.5858 34.1475 11.2441 34.9705 10.9019L35.4057 10.7215L35.8072 10.5542L36.1559 10.4093C36.3879 10.3081 36.6154 10.2005 36.8415 10.0886C37.012 10.0041 37.1184 9.82938 37.1184 9.63909C37.1184 9.43954 37.0012 9.25859 36.8192 9.17694L36.6112 9.08367L35.9505 8.78285C35.8403 8.7334 35.7301 8.68427 35.6165 8.63355L35.2936 8.48553L34.9972 8.35155C34.9937 8.34954 34.9902 8.34754 34.9867 8.34554C34.4317 8.02583 34.1068 7.38072 34.2472 6.75576C34.3427 6.331 34.6335 5.91174 35.0516 5.79044C35.2123 5.74382 35.3898 5.7374 35.6448 5.74555C36.4457 5.87268 37.1836 6.21753 37.927 6.52968L38.4413 6.73193C39.2245 7.05677 39.8523 7.39798 40.3507 7.94462C40.8299 8.47024 41.0497 9.19728 40.9859 9.90572C40.9761 10.0147 40.9608 10.1227 40.9389 10.2308C40.836 10.739 40.5216 11.1783 40.128 11.5159C39.6336 11.94 39.1012 12.2294 38.431 12.5019L38.1068 12.6351C37.874 12.7308 37.6408 12.8258 37.4073 12.9202C36.8991 13.126 36.3921 13.3345 35.8848 13.543L35.0654 13.8795C33.2331 14.6313 31.4104 15.4063 29.5867 16.1788C27.9528 16.872 26.3156 17.5574 24.6751 18.2348L24.2361 18.4171C22.9747 18.9344 21.8693 19.2601 20.499 19.2703L20.1326 19.2863C17.8293 19.307 15.4531 17.9041 13.3723 17.0171C12.7347 16.7465 12.0971 16.4761 11.4595 16.2061L10.9686 15.9977C9.83386 15.5172 8.69739 15.0408 7.55917 14.5686L7.08915 14.3732C6.19049 13.9998 6.19049 13.9998 5.29135 13.6275C2.97829 12.6719 1.92404 12.2364 1.31866 11.916C0.544595 11.5064 0.0332125 10.6937 0.00264225 9.81848C0.0020455 9.80139 0.00155118 9.78429 0.00115791 9.76717C-0.0131117 9.1458 0.173534 8.52054 0.581534 8.05167C1.16384 7.38248 1.94058 7.0144 2.83173 6.65377L3.23099 6.48821C3.66651 6.30813 4.1025 6.1298 4.5385 5.95163C5.00111 5.76065 5.46362 5.56946 5.92602 5.37805L6.89096 4.97945C8.03765 4.5062 9.1813 4.02657 10.3235 3.54279L10.8055 3.33862C11.4242 3.07661 12.0428 2.81428 12.6613 2.55162C14.1556 1.91679 15.6519 1.28994 17.1647 0.699771L17.5249 0.558769C19.8344 -0.332545 22.0996 -0.10206 24.342 0.857362ZM4.44051 22.9422C4.7188 22.9874 4.9956 23.087 5.20343 23.2775C5.21357 23.2868 5.22334 23.2962 5.23286 23.3058C5.44079 23.5156 5.54126 23.8143 5.56671 24.1086C5.56732 24.1157 5.56787 24.1226 5.56836 24.1295C5.5991 24.5579 5.34447 24.9578 5.01174 25.2294C4.82056 25.3855 4.62155 25.5244 4.40701 25.6482C4.10578 25.8219 3.81369 26.0745 3.93258 26.4013C3.99139 26.5629 4.13351 26.7507 4.28309 26.8356C4.64422 27.0406 5.03213 27.1807 5.42375 27.3315L5.85703 27.5071C6.33135 27.6985 6.80727 27.8858 7.28352 28.0729C7.61357 28.2052 7.94363 28.3377 8.27369 28.4704C8.7886 28.6777 9.30381 28.8843 9.81932 29.0901C11.0382 29.5779 12.2523 30.0778 13.4614 30.5894L14.456 31.0073C14.9334 31.2078 15.4102 31.4093 15.8867 31.612C18.5105 32.7279 20.4682 33.4804 23.2234 32.3926C23.8721 32.1298 24.5162 31.8556 25.1605 31.582C25.4443 31.4627 25.7282 31.3436 26.0122 31.2247C26.6205 30.9695 27.2287 30.7138 27.8365 30.4575C28.8654 30.0252 29.8955 29.5956 30.9268 29.1689L31.9812 28.7313L32.5012 28.5157L33.0161 28.3021L33.5287 28.0897C34.0094 27.8901 34.49 27.6903 34.9705 27.4904L35.4057 27.31L35.8072 27.1427L36.1559 26.9978C36.3844 26.8982 36.6085 26.7923 36.8312 26.6821C37.0081 26.5947 37.1184 26.4135 37.1184 26.2162C37.1184 26.0215 37.0107 25.8427 36.8386 25.7518L36.8095 25.7365L36.4096 25.5208L36.011 25.3077C35.5984 25.0506 35.4662 24.5355 35.4703 24.0493C35.4705 24.0308 35.4709 24.013 35.4716 23.9958C35.4932 23.4764 35.9753 23.0774 36.4795 22.951C36.8837 22.8496 37.3275 22.9094 37.7206 23.0476C37.9748 23.1369 38.2237 23.2398 38.4759 23.3476L38.8421 23.5007C39.488 23.7859 39.9675 24.083 40.3613 24.526C40.8337 25.0575 41.0497 25.7857 40.986 26.4939C40.9762 26.603 40.9609 26.7111 40.9389 26.8193C40.836 27.3275 40.5216 27.7668 40.128 28.1044C39.6336 28.5285 39.1012 28.8179 38.431 29.0904L38.1068 29.2236C37.874 29.3193 37.6408 29.4143 37.4073 29.5088C36.8991 29.7145 36.3921 29.923 35.8848 30.1315L35.0654 30.468C33.2331 31.2198 31.4104 31.9948 29.5867 32.7673C27.9528 33.4605 26.3156 34.1459 24.6751 34.8233L24.2361 35.0056C22.9747 35.5229 21.8693 35.8486 20.499 35.8588L20.1326 35.8748C17.8293 35.8955 15.4531 34.4927 13.3723 33.6057C12.7347 33.335 12.0971 33.0647 11.4595 32.7946L10.9686 32.5863C9.83386 32.1057 8.69739 31.6293 7.55917 31.1571L7.08915 30.9617C6.19049 30.5883 6.19049 30.5883 5.29135 30.216C2.97829 29.2605 1.92404 28.8249 1.31866 28.5045C0.544595 28.0949 0.0331976 27.2823 0.00263994 26.407C0.00204426 26.3899 0.00155072 26.3729 0.00115796 26.3558C-0.0131134 25.7343 0.17445 25.1098 0.580845 24.6395C1.10682 24.0308 1.79764 23.652 2.60207 23.2978L3.16982 23.0404C3.6644 22.8918 4.0118 22.8726 4.44051 22.9422Z" fill="#F6522A"/>
<path d="M4.44808 14.5941C4.72126 14.6384 4.99253 14.7352 5.19913 14.9193C5.21124 14.9301 5.22279 14.941 5.23403 14.9522C5.44027 15.1581 5.54138 15.4522 5.56675 15.7425C5.5671 15.7465 5.56744 15.7505 5.56775 15.7544C5.60142 16.1815 5.34341 16.5797 5.00946 16.8479C4.81749 17.0022 4.61762 17.1393 4.40202 17.2614C4.1036 17.4305 3.8138 17.6792 3.93271 18.0009C3.99143 18.1597 4.13277 18.3441 4.28052 18.4269C4.64237 18.6297 5.03119 18.768 5.42375 18.9169L5.85703 19.0899C6.33135 19.2785 6.80727 19.463 7.28352 19.6473C7.61357 19.7776 7.94353 19.9081 8.27337 20.0389C8.78815 20.2431 9.30326 20.4466 9.81868 20.6493C11.0394 21.1305 12.2556 21.6229 13.467 22.1264C13.7992 22.2637 14.1315 22.4009 14.4639 22.5381C14.9425 22.736 15.4208 22.934 15.8987 23.1337C16.3425 23.3185 16.7869 23.502 17.2319 23.6842L17.6208 23.8485C19.7942 24.7324 21.4582 24.6138 23.6001 23.7585C24.1251 23.5435 24.6478 23.324 25.1705 23.1042C25.4535 22.9867 25.7367 22.8693 26.02 22.7522C26.6267 22.5008 27.233 22.2489 27.839 21.9964C28.8667 21.57 29.8957 21.1468 30.9262 20.7269L31.4556 20.5106L32.501 20.0835C33.3243 19.7472 34.1475 19.4105 34.9705 19.0734L35.4057 18.8957L35.8072 18.7309L36.1559 18.5882C36.3856 18.4895 36.6108 18.3846 36.8347 18.2755C37.0092 18.1905 37.1184 18.0124 37.1184 17.8182C37.1184 17.6266 37.0118 17.4509 36.8418 17.3624L36.8095 17.3456L36.4096 17.1332L36.011 16.9232C35.6 16.671 35.4648 16.1606 35.4704 15.6784C35.4706 15.6599 35.4711 15.642 35.4719 15.6248C35.4956 15.1158 35.9788 14.7272 36.473 14.6032C36.4824 14.6008 36.4919 14.5985 36.5015 14.5962C36.9032 14.502 37.3255 14.5602 37.7155 14.6949C37.9714 14.7833 38.222 14.8854 38.4759 14.9922L38.8421 15.1431C39.4789 15.4201 39.9541 15.7085 40.3447 16.1349C40.831 16.6657 41.0554 17.4048 40.9832 18.1211C40.9738 18.2138 40.9603 18.3059 40.9418 18.398C40.8395 18.9092 40.5192 19.349 40.1203 19.6848C39.6281 20.0991 39.0978 20.3826 38.431 20.6496L38.1068 20.7808C37.874 20.8751 37.6408 20.9688 37.4073 21.0618C36.8991 21.2645 36.3921 21.4699 35.8848 21.6752L35.0654 22.0068C33.2331 22.7474 31.4104 23.5109 29.5867 24.2719C27.9528 24.9548 26.3156 25.6299 24.6751 26.2973L24.2361 26.4769C22.9747 26.9865 21.8693 27.3073 20.499 27.3174L20.1326 27.3331C17.8293 27.3535 15.4531 25.9716 13.3723 25.0977C12.7347 24.8311 12.0971 24.5648 11.4595 24.2987L10.9686 24.0935C9.83386 23.6201 8.69739 23.1508 7.55917 22.6856L7.08915 22.4931C6.19049 22.1253 6.19049 22.1253 5.29135 21.7585C2.99445 20.8238 1.93884 20.3941 1.33142 20.0791C0.550002 19.6739 0.0293179 18.8676 0.00203162 17.9878C-0.0174567 17.3594 0.17709 16.7197 0.594418 16.2495C1.11868 15.6589 1.80455 15.2891 2.60207 14.9432L3.16982 14.6896C3.66731 14.5424 4.01588 14.5241 4.44808 14.5941Z" fill="#F6522A"/>
<path d="M30.2715 3.00863C30.7229 3.03955 31.1915 3.16849 31.5115 3.48847C31.8315 3.80846 31.9605 4.27707 31.9914 4.72854C32.0008 4.86558 32.0027 4.99856 31.9962 5.12916C31.9471 6.11244 31.1124 6.94711 30.1292 6.99617C29.9986 7.00269 29.8656 7.00076 29.7285 6.99137C29.2771 6.96045 28.8085 6.83151 28.4885 6.51153C28.1685 6.19154 28.0395 5.72293 28.0086 5.27146C27.9992 5.13442 27.9973 5.00144 28.0038 4.87084C28.0529 3.88756 28.8876 3.05289 29.8708 3.00383C30.0014 2.99731 30.1344 2.99924 30.2715 3.00863Z" fill="#F5522A"/>
</svg>
